<svg width="1340" height="45" viewBox="0 0 1340 45" fill="none" xmlns="http://www.w3.org/2000/svg">
    <path d="M21 1H334V44H21C9.9543 44 1 35.0457 1 24V21C1 9.9543 9.95431 1 21 1Z" fill="white" stroke="#373F41" stroke-width="2"/>
    <path d="M67.824 32V19.904H78.672V32H76.272V21.8H70.224V32H67.824ZM88.0964 32.216C86.1444 32.216 84.6084 31.664 83.4884 30.56C82.3684 29.456 81.8084 27.928 81.8084 25.976C81.8084 24.712 82.0484 23.608 82.5284 22.664C83.0244 21.72 83.7044 20.992 84.5684 20.48C85.4484 19.952 86.4644 19.688 87.6164 19.688C88.7524 19.688 89.7044 19.928 90.4724 20.408C91.2404 20.888 91.8244 21.568 92.2244 22.448C92.6244 23.312 92.8244 24.336 92.8244 25.52V26.288H83.7044V24.896H91.1684L90.7604 25.208C90.7604 24.008 90.4884 23.08 89.9444 22.424C89.4164 21.752 88.6484 21.416 87.6404 21.416C86.5204 21.416 85.6564 21.808 85.0484 22.592C84.4404 23.36 84.1364 24.424 84.1364 25.784V26.024C84.1364 27.448 84.4804 28.52 85.1684 29.24C85.8724 29.96 86.8644 30.32 88.1444 30.32C88.8484 30.32 89.5044 30.224 90.1124 30.032C90.7364 29.824 91.3284 29.488 91.8884 29.024L92.6804 30.68C92.1204 31.176 91.4404 31.56 90.6404 31.832C89.8404 32.088 88.9924 32.216 88.0964 32.216ZM95.9872 37.184V22.808C95.9872 22.344 95.9632 21.872 95.9152 21.392C95.8832 20.896 95.8432 20.4 95.7952 19.904H98.1472L98.3872 22.64H98.1232C98.3792 21.728 98.8912 21.008 99.6592 20.48C100.443 19.952 101.371 19.688 102.443 19.688C103.515 19.688 104.451 19.944 105.251 20.456C106.051 20.952 106.667 21.664 107.099 22.592C107.547 23.52 107.771 24.64 107.771 25.952C107.771 27.248 107.547 28.368 107.099 29.312C106.667 30.256 106.051 30.976 105.251 31.472C104.451 31.968 103.515 32.216 102.443 32.216C101.387 32.216 100.467 31.96 99.6832 31.448C98.9152 30.92 98.4032 30.208 98.1472 29.312H98.4112V37.184H95.9872ZM101.843 30.32C102.899 30.32 103.739 29.952 104.363 29.216C105.003 28.48 105.323 27.392 105.323 25.952C105.323 24.512 105.003 23.432 104.363 22.712C103.739 21.976 102.899 21.608 101.843 21.608C100.787 21.608 99.9392 21.976 99.2992 22.712C98.6752 23.432 98.3632 24.512 98.3632 25.952C98.3632 27.392 98.6752 28.48 99.2992 29.216C99.9392 29.952 100.787 30.32 101.843 30.32ZM110.993 32V19.904H113.417V32H110.993ZM110.801 17.384V14.864H113.609V17.384H110.801ZM122.512 32.216C121.312 32.216 120.272 31.968 119.392 31.472C118.512 30.96 117.832 30.24 117.352 29.312C116.872 28.368 116.632 27.248 116.632 25.952C116.632 24.656 116.872 23.544 117.352 22.616C117.832 21.672 118.512 20.952 119.392 20.456C120.272 19.944 121.312 19.688 122.512 19.688C123.712 19.688 124.752 19.944 125.632 20.456C126.528 20.952 127.216 21.672 127.696 22.616C128.192 23.544 128.44 24.656 128.44 25.952C128.44 27.248 128.192 28.368 127.696 29.312C127.216 30.24 126.528 30.96 125.632 31.472C124.752 31.968 123.712 32.216 122.512 32.216ZM122.512 30.32C123.568 30.32 124.408 29.952 125.032 29.216C125.656 28.48 125.968 27.392 125.968 25.952C125.968 24.512 125.656 23.432 125.032 22.712C124.408 21.976 123.568 21.608 122.512 21.608C121.472 21.608 120.64 21.976 120.016 22.712C119.392 23.432 119.08 24.512 119.08 25.952C119.08 27.392 119.384 28.48 119.992 29.216C120.616 29.952 121.456 30.32 122.512 30.32ZM130.335 35.12V30.128H131.679C132.207 29.328 132.591 28.392 132.831 27.32C133.071 26.248 133.191 24.952 133.191 23.432V19.904H142.047V30.128H143.991V35.12H141.903V32H132.423V35.12H130.335ZM133.911 30.152H139.767V21.776H135.279V23.912C135.279 25.08 135.159 26.224 134.919 27.344C134.695 28.448 134.359 29.384 133.911 30.152ZM146.494 32V19.904H148.702V29.672H148.03L155.326 19.904H157.342V32H155.158V22.208H155.854L148.51 32H146.494ZM167.577 32V19.904H169.593L173.961 27.632L178.329 19.904H180.345V32H178.209V22.616H178.737L174.537 30.056H173.385L169.185 22.616H169.713V32H167.577ZM189.771 32.216C187.819 32.216 186.283 31.664 185.163 30.56C184.043 29.456 183.483 27.928 183.483 25.976C183.483 24.712 183.723 23.608 184.203 22.664C184.699 21.72 185.379 20.992 186.243 20.48C187.123 19.952 188.139 19.688 189.291 19.688C190.427 19.688 191.379 19.928 192.147 20.408C192.915 20.888 193.499 21.568 193.899 22.448C194.299 23.312 194.499 24.336 194.499 25.52V26.288H185.379V24.896H192.843L192.435 25.208C192.435 24.008 192.163 23.08 191.619 22.424C191.091 21.752 190.323 21.416 189.315 21.416C188.195 21.416 187.331 21.808 186.723 22.592C186.115 23.36 185.811 24.424 185.811 25.784V26.024C185.811 27.448 186.155 28.52 186.843 29.24C187.547 29.96 188.539 30.32 189.819 30.32C190.523 30.32 191.179 30.224 191.787 30.032C192.411 29.824 193.003 29.488 193.563 29.024L194.355 30.68C193.795 31.176 193.115 31.56 192.315 31.832C191.515 32.088 190.667 32.216 189.771 32.216ZM196.366 35.12V30.128H197.71C198.238 29.328 198.622 28.392 198.862 27.32C199.102 26.248 199.222 24.952 199.222 23.432V19.904H208.078V30.128H210.022V35.12H207.934V32H198.454V35.12H196.366ZM199.942 30.152H205.798V21.776H201.31V23.912C201.31 25.08 201.19 26.224 200.95 27.344C200.726 28.448 200.39 29.384 199.942 30.152ZM212.526 32V19.904H214.734V29.672H214.062L221.358 19.904H223.374V32H221.19V22.208H221.886L214.542 32H212.526ZM231.838 32.216C230.766 32.216 229.83 31.968 229.03 31.472C228.23 30.976 227.606 30.256 227.158 29.312C226.726 28.368 226.51 27.248 226.51 25.952C226.51 24.64 226.726 23.52 227.158 22.592C227.606 21.664 228.23 20.952 229.03 20.456C229.83 19.944 230.766 19.688 231.838 19.688C232.894 19.688 233.814 19.952 234.598 20.48C235.382 21.008 235.902 21.728 236.158 22.64H235.894L236.134 19.904H238.486C238.438 20.4 238.39 20.896 238.342 21.392C238.31 21.872 238.294 22.344 238.294 22.808V32H235.87V29.312H236.134C235.878 30.208 235.35 30.92 234.55 31.448C233.766 31.96 232.862 32.216 231.838 32.216ZM232.438 30.32C233.478 30.32 234.31 29.952 234.934 29.216C235.574 28.48 235.894 27.392 235.894 25.952C235.894 24.512 235.574 23.432 234.934 22.712C234.31 21.976 233.478 21.608 232.438 21.608C231.382 21.608 230.534 21.976 229.894 22.712C229.27 23.432 228.958 24.512 228.958 25.952C228.958 27.392 229.27 28.48 229.894 29.216C230.518 29.952 231.366 30.32 232.438 30.32ZM252.58 35.12V32H242.116V19.904H244.516V30.104H250.3V19.904H252.676V30.104H254.62V35.12H252.58ZM257.242 32V19.904H259.666V32H257.242ZM257.05 17.384V14.864H259.858V17.384H257.05ZM263.576 32V19.904H266V32H263.576ZM265.76 17.504V15.128H268.136V17.504H265.76ZM261.416 17.504V15.128H263.792V17.504H261.416Z" fill="#373F41"/>
    <rect x="336" y="1" width="333" height="43" fill="white" stroke="#373F41" stroke-width="2"/>
    <path d="M437.824 32V19.904H448.672V32H446.272V21.8H440.224V32H437.824ZM452.504 37.184V22.808C452.504 22.344 452.48 21.872 452.432 21.392C452.4 20.896 452.36 20.4 452.312 19.904H454.664L454.904 22.64H454.64C454.896 21.728 455.408 21.008 456.176 20.48C456.96 19.952 457.888 19.688 458.96 19.688C460.032 19.688 460.968 19.944 461.768 20.456C462.568 20.952 463.184 21.664 463.616 22.592C464.064 23.52 464.288 24.64 464.288 25.952C464.288 27.248 464.064 28.368 463.616 29.312C463.184 30.256 462.568 30.976 461.768 31.472C460.968 31.968 460.032 32.216 458.96 32.216C457.904 32.216 456.984 31.96 456.2 31.448C455.432 30.92 454.92 30.208 454.664 29.312H454.928V37.184H452.504ZM458.36 30.32C459.416 30.32 460.256 29.952 460.88 29.216C461.52 28.48 461.84 27.392 461.84 25.952C461.84 24.512 461.52 23.432 460.88 22.712C460.256 21.976 459.416 21.608 458.36 21.608C457.304 21.608 456.456 21.976 455.816 22.712C455.192 23.432 454.88 24.512 454.88 25.952C454.88 27.392 455.192 28.48 455.816 29.216C456.456 29.952 457.304 30.32 458.36 30.32ZM472.695 32.216C471.495 32.216 470.455 31.968 469.575 31.472C468.695 30.96 468.015 30.24 467.535 29.312C467.055 28.368 466.815 27.248 466.815 25.952C466.815 24.656 467.055 23.544 467.535 22.616C468.015 21.672 468.695 20.952 469.575 20.456C470.455 19.944 471.495 19.688 472.695 19.688C473.895 19.688 474.935 19.944 475.815 20.456C476.711 20.952 477.399 21.672 477.879 22.616C478.375 23.544 478.623 24.656 478.623 25.952C478.623 27.248 478.375 28.368 477.879 29.312C477.399 30.24 476.711 30.96 475.815 31.472C474.935 31.968 473.895 32.216 472.695 32.216ZM472.695 30.32C473.751 30.32 474.591 29.952 475.215 29.216C475.839 28.48 476.151 27.392 476.151 25.952C476.151 24.512 475.839 23.432 475.215 22.712C474.591 21.976 473.751 21.608 472.695 21.608C471.655 21.608 470.823 21.976 470.199 22.712C469.575 23.432 469.263 24.512 469.263 25.952C469.263 27.392 469.567 28.48 470.175 29.216C470.799 29.952 471.639 30.32 472.695 30.32ZM488.216 32V19.904H499.064V32H496.664V21.8H490.616V32H488.216ZM502.897 37.184V22.808C502.897 22.344 502.873 21.872 502.825 21.392C502.793 20.896 502.753 20.4 502.705 19.904H505.057L505.297 22.64H505.033C505.289 21.728 505.801 21.008 506.569 20.48C507.353 19.952 508.281 19.688 509.353 19.688C510.425 19.688 511.361 19.944 512.161 20.456C512.961 20.952 513.577 21.664 514.009 22.592C514.457 23.52 514.681 24.64 514.681 25.952C514.681 27.248 514.457 28.368 514.009 29.312C513.577 30.256 512.961 30.976 512.161 31.472C511.361 31.968 510.425 32.216 509.353 32.216C508.297 32.216 507.377 31.96 506.593 31.448C505.825 30.92 505.313 30.208 505.057 29.312H505.321V37.184H502.897ZM508.753 30.32C509.809 30.32 510.649 29.952 511.273 29.216C511.913 28.48 512.233 27.392 512.233 25.952C512.233 24.512 511.913 23.432 511.273 22.712C510.649 21.976 509.809 21.608 508.753 21.608C507.697 21.608 506.849 21.976 506.209 22.712C505.585 23.432 505.273 24.512 505.273 25.952C505.273 27.392 505.585 28.48 506.209 29.216C506.849 29.952 507.697 30.32 508.753 30.32ZM523.087 32.216C521.887 32.216 520.847 31.968 519.967 31.472C519.087 30.96 518.407 30.24 517.927 29.312C517.447 28.368 517.207 27.248 517.207 25.952C517.207 24.656 517.447 23.544 517.927 22.616C518.407 21.672 519.087 20.952 519.967 20.456C520.847 19.944 521.887 19.688 523.087 19.688C524.287 19.688 525.327 19.944 526.207 20.456C527.103 20.952 527.791 21.672 528.271 22.616C528.767 23.544 529.015 24.656 529.015 25.952C529.015 27.248 528.767 28.368 528.271 29.312C527.791 30.24 527.103 30.96 526.207 31.472C525.327 31.968 524.287 32.216 523.087 32.216ZM523.087 30.32C524.143 30.32 524.983 29.952 525.607 29.216C526.231 28.48 526.543 27.392 526.543 25.952C526.543 24.512 526.231 23.432 525.607 22.712C524.983 21.976 524.143 21.608 523.087 21.608C522.047 21.608 521.215 21.976 520.591 22.712C519.967 23.432 519.655 24.512 519.655 25.952C519.655 27.392 519.959 28.48 520.567 29.216C521.191 29.952 522.031 30.32 523.087 30.32ZM537.798 32.216C535.846 32.216 534.31 31.664 533.19 30.56C532.07 29.456 531.51 27.928 531.51 25.976C531.51 24.712 531.75 23.608 532.23 22.664C532.726 21.72 533.406 20.992 534.27 20.48C535.15 19.952 536.166 19.688 537.318 19.688C538.454 19.688 539.406 19.928 540.174 20.408C540.942 20.888 541.526 21.568 541.926 22.448C542.326 23.312 542.526 24.336 542.526 25.52V26.288H533.406V24.896H540.87L540.462 25.208C540.462 24.008 540.19 23.08 539.646 22.424C539.118 21.752 538.35 21.416 537.342 21.416C536.222 21.416 535.358 21.808 534.75 22.592C534.142 23.36 533.838 24.424 533.838 25.784V26.024C533.838 27.448 534.182 28.52 534.87 29.24C535.574 29.96 536.566 30.32 537.846 30.32C538.55 30.32 539.206 30.224 539.814 30.032C540.438 29.824 541.03 29.488 541.59 29.024L542.382 30.68C541.822 31.176 541.142 31.56 540.342 31.832C539.542 32.088 538.694 32.216 537.798 32.216ZM545.593 32V19.904H547.993V24.848H550.081L553.849 19.904H556.489L551.977 25.856L551.377 25.088C551.841 25.136 552.241 25.256 552.577 25.448C552.913 25.624 553.241 25.888 553.561 26.24C553.881 26.592 554.209 27.056 554.545 27.632L557.065 32H554.473L552.313 28.304C552.073 27.888 551.841 27.568 551.617 27.344C551.393 27.104 551.137 26.944 550.849 26.864C550.561 26.768 550.209 26.72 549.793 26.72H547.993V32H545.593ZM561.527 32V21.848H557.255V19.904H568.223V21.848H563.927V32H561.527Z" fill="#373F41"/>
    <path d="M671 1H1004V44H671V1Z" fill="white" stroke="#373F41" stroke-width="2"/>
    <path d="M756.824 32V19.904H767.672V32H765.272V21.8H759.224V32H756.824ZM771.504 37.184V22.808C771.504 22.344 771.48 21.872 771.432 21.392C771.4 20.896 771.36 20.4 771.312 19.904H773.664L773.904 22.64H773.64C773.896 21.728 774.408 21.008 775.176 20.48C775.96 19.952 776.888 19.688 777.96 19.688C779.032 19.688 779.968 19.944 780.768 20.456C781.568 20.952 782.184 21.664 782.616 22.592C783.064 23.52 783.288 24.64 783.288 25.952C783.288 27.248 783.064 28.368 782.616 29.312C782.184 30.256 781.568 30.976 780.768 31.472C779.968 31.968 779.032 32.216 777.96 32.216C776.904 32.216 775.984 31.96 775.2 31.448C774.432 30.92 773.92 30.208 773.664 29.312H773.928V37.184H771.504ZM777.36 30.32C778.416 30.32 779.256 29.952 779.88 29.216C780.52 28.48 780.84 27.392 780.84 25.952C780.84 24.512 780.52 23.432 779.88 22.712C779.256 21.976 778.416 21.608 777.36 21.608C776.304 21.608 775.456 21.976 774.816 22.712C774.192 23.432 773.88 24.512 773.88 25.952C773.88 27.392 774.192 28.48 774.816 29.216C775.456 29.952 776.304 30.32 777.36 30.32ZM791.695 32.216C790.495 32.216 789.455 31.968 788.575 31.472C787.695 30.96 787.015 30.24 786.535 29.312C786.055 28.368 785.815 27.248 785.815 25.952C785.815 24.656 786.055 23.544 786.535 22.616C787.015 21.672 787.695 20.952 788.575 20.456C789.455 19.944 790.495 19.688 791.695 19.688C792.895 19.688 793.935 19.944 794.815 20.456C795.711 20.952 796.399 21.672 796.879 22.616C797.375 23.544 797.623 24.656 797.623 25.952C797.623 27.248 797.375 28.368 796.879 29.312C796.399 30.24 795.711 30.96 794.815 31.472C793.935 31.968 792.895 32.216 791.695 32.216ZM791.695 30.32C792.751 30.32 793.591 29.952 794.215 29.216C794.839 28.48 795.151 27.392 795.151 25.952C795.151 24.512 794.839 23.432 794.215 22.712C793.591 21.976 792.751 21.608 791.695 21.608C790.655 21.608 789.823 21.976 789.199 22.712C788.575 23.432 788.263 24.512 788.263 25.952C788.263 27.392 788.567 28.48 789.175 29.216C789.799 29.952 790.639 30.32 791.695 30.32ZM807.216 32V19.904H809.232L813.6 27.632L817.968 19.904H819.984V32H817.848V22.616H818.376L814.176 30.056H813.024L808.824 22.616H809.352V32H807.216ZM829.41 32.216C827.458 32.216 825.922 31.664 824.802 30.56C823.682 29.456 823.122 27.928 823.122 25.976C823.122 24.712 823.362 23.608 823.842 22.664C824.338 21.72 825.018 20.992 825.882 20.48C826.762 19.952 827.778 19.688 828.93 19.688C830.066 19.688 831.018 19.928 831.786 20.408C832.554 20.888 833.138 21.568 833.538 22.448C833.938 23.312 834.138 24.336 834.138 25.52V26.288H825.018V24.896H832.482L832.074 25.208C832.074 24.008 831.802 23.08 831.258 22.424C830.73 21.752 829.962 21.416 828.954 21.416C827.834 21.416 826.97 21.808 826.362 22.592C825.754 23.36 825.45 24.424 825.45 25.784V26.024C825.45 27.448 825.794 28.52 826.482 29.24C827.186 29.96 828.178 30.32 829.458 30.32C830.162 30.32 830.818 30.224 831.426 30.032C832.05 29.824 832.642 29.488 833.202 29.024L833.994 30.68C833.434 31.176 832.754 31.56 831.954 31.832C831.154 32.088 830.306 32.216 829.41 32.216ZM836.005 35.12V30.128H837.349C837.877 29.328 838.261 28.392 838.501 27.32C838.741 26.248 838.861 24.952 838.861 23.432V19.904H847.717V30.128H849.661V35.12H847.573V32H838.093V35.12H836.005ZM839.581 30.152H845.437V21.776H840.949V23.912C840.949 25.08 840.829 26.224 840.589 27.344C840.365 28.448 840.029 29.384 839.581 30.152ZM852.165 32V19.904H854.373V29.672H853.701L860.997 19.904H863.013V32H860.829V22.208H861.525L854.181 32H852.165ZM871.477 32.216C870.405 32.216 869.469 31.968 868.669 31.472C867.869 30.976 867.245 30.256 866.797 29.312C866.365 28.368 866.149 27.248 866.149 25.952C866.149 24.64 866.365 23.52 866.797 22.592C867.245 21.664 867.869 20.952 868.669 20.456C869.469 19.944 870.405 19.688 871.477 19.688C872.533 19.688 873.453 19.952 874.237 20.48C875.021 21.008 875.541 21.728 875.797 22.64H875.533L875.773 19.904H878.125C878.077 20.4 878.029 20.896 877.981 21.392C877.949 21.872 877.933 22.344 877.933 22.808V32H875.509V29.312H875.773C875.517 30.208 874.989 30.92 874.189 31.448C873.405 31.96 872.501 32.216 871.477 32.216ZM872.077 30.32C873.117 30.32 873.949 29.952 874.573 29.216C875.213 28.48 875.533 27.392 875.533 25.952C875.533 24.512 875.213 23.432 874.573 22.712C873.949 21.976 873.117 21.608 872.077 21.608C871.021 21.608 870.173 21.976 869.533 22.712C868.909 23.432 868.597 24.512 868.597 25.952C868.597 27.392 868.909 28.48 869.533 29.216C870.157 29.952 871.005 30.32 872.077 30.32ZM892.219 35.12V32H881.755V19.904H884.155V30.104H889.939V19.904H892.315V30.104H894.259V35.12H892.219ZM896.881 32V19.904H899.305V32H896.881ZM896.689 17.384V14.864H899.497V17.384H896.689ZM913.583 32.216C911.935 32.216 910.591 31.736 909.551 30.776C908.511 29.8 907.911 28.448 907.751 26.72H905.471V32H903.119V19.904H905.471V24.824H907.775C907.999 23.208 908.623 21.952 909.647 21.056C910.671 20.144 911.983 19.688 913.583 19.688C914.783 19.688 915.823 19.944 916.703 20.456C917.599 20.952 918.287 21.664 918.767 22.592C919.263 23.52 919.511 24.64 919.511 25.952C919.511 27.248 919.263 28.368 918.767 29.312C918.287 30.24 917.599 30.96 916.703 31.472C915.823 31.968 914.783 32.216 913.583 32.216ZM913.583 30.344C914.639 30.344 915.479 29.976 916.103 29.24C916.743 28.504 917.063 27.408 917.063 25.952C917.063 24.512 916.743 23.424 916.103 22.688C915.479 21.952 914.639 21.584 913.583 21.584C912.527 21.584 911.679 21.952 911.039 22.688C910.415 23.424 910.103 24.512 910.103 25.952C910.103 27.408 910.415 28.504 911.039 29.24C911.679 29.976 912.527 30.344 913.583 30.344Z" fill="#373F41"/>
    <path d="M1006 1H1319C1330.05 1 1339 9.95431 1339 21V24C1339 35.0457 1330.05 44 1319 44H1006V1Z" fill="white" stroke="#373F41" stroke-width="2"/>
    <path d="M1109.29 35.12V32H1098.82V19.904H1101.22V30.104H1107.01V19.904H1109.38V30.104H1111.33V35.12H1109.29ZM1113.95 32V19.904H1116.37V32H1113.95ZM1113.76 17.384V14.864H1116.57V17.384H1113.76ZM1119.68 32.312L1118.87 30.392C1119.41 30.168 1119.87 29.888 1120.24 29.552C1120.62 29.2 1120.92 28.752 1121.12 28.208C1121.35 27.664 1121.51 26.992 1121.6 26.192C1121.7 25.392 1121.75 24.424 1121.75 23.288V19.904H1130.87V32H1128.47V21.8H1123.98V23.36C1123.98 25.184 1123.84 26.696 1123.55 27.896C1123.26 29.096 1122.8 30.048 1122.16 30.752C1121.53 31.44 1120.71 31.96 1119.68 32.312ZM1134.7 32V19.904H1137.13V32H1134.7ZM1134.51 17.384V14.864H1137.32V17.384H1134.51ZM1147.44 32V19.904H1149.46L1153.83 27.632L1158.19 19.904H1160.21V32H1158.07V22.616H1158.6L1154.4 30.056H1153.25L1149.05 22.616H1149.58V32H1147.44ZM1169.64 32.216C1167.68 32.216 1166.15 31.664 1165.03 30.56C1163.91 29.456 1163.35 27.928 1163.35 25.976C1163.35 24.712 1163.59 23.608 1164.07 22.664C1164.56 21.72 1165.24 20.992 1166.11 20.48C1166.99 19.952 1168 19.688 1169.16 19.688C1170.29 19.688 1171.24 19.928 1172.01 20.408C1172.78 20.888 1173.36 21.568 1173.76 22.448C1174.16 23.312 1174.36 24.336 1174.36 25.52V26.288H1165.24V24.896H1172.71L1172.3 25.208C1172.3 24.008 1172.03 23.08 1171.48 22.424C1170.96 21.752 1170.19 21.416 1169.18 21.416C1168.06 21.416 1167.2 21.808 1166.59 22.592C1165.98 23.36 1165.68 24.424 1165.68 25.784V26.024C1165.68 27.448 1166.02 28.52 1166.71 29.24C1167.41 29.96 1168.4 30.32 1169.68 30.32C1170.39 30.32 1171.04 30.224 1171.65 30.032C1172.28 29.824 1172.87 29.488 1173.43 29.024L1174.22 30.68C1173.66 31.176 1172.98 31.56 1172.18 31.832C1171.38 32.088 1170.53 32.216 1169.64 32.216ZM1176.23 35.12V30.128H1177.57C1178.1 29.328 1178.49 28.392 1178.73 27.32C1178.97 26.248 1179.09 24.952 1179.09 23.432V19.904H1187.94V30.128H1189.89V35.12H1187.8V32H1178.32V35.12H1176.23ZM1179.81 30.152H1185.66V21.776H1181.17V23.912C1181.17 25.08 1181.05 26.224 1180.81 27.344C1180.59 28.448 1180.25 29.384 1179.81 30.152ZM1192.39 32V19.904H1194.6V29.672H1193.93L1201.22 19.904H1203.24V32H1201.05V22.208H1201.75L1194.41 32H1192.39ZM1211.7 32.216C1210.63 32.216 1209.69 31.968 1208.89 31.472C1208.09 30.976 1207.47 30.256 1207.02 29.312C1206.59 28.368 1206.37 27.248 1206.37 25.952C1206.37 24.64 1206.59 23.52 1207.02 22.592C1207.47 21.664 1208.09 20.952 1208.89 20.456C1209.69 19.944 1210.63 19.688 1211.7 19.688C1212.76 19.688 1213.68 19.952 1214.46 20.48C1215.25 21.008 1215.77 21.728 1216.02 22.64H1215.76L1216 19.904H1218.35C1218.3 20.4 1218.25 20.896 1218.21 21.392C1218.17 21.872 1218.16 22.344 1218.16 22.808V32H1215.73V29.312H1216C1215.74 30.208 1215.21 30.92 1214.41 31.448C1213.63 31.96 1212.73 32.216 1211.7 32.216ZM1212.3 30.32C1213.34 30.32 1214.17 29.952 1214.8 29.216C1215.44 28.48 1215.76 27.392 1215.76 25.952C1215.76 24.512 1215.44 23.432 1214.8 22.712C1214.17 21.976 1213.34 21.608 1212.3 21.608C1211.25 21.608 1210.4 21.976 1209.76 22.712C1209.13 23.432 1208.82 24.512 1208.82 25.952C1208.82 27.392 1209.13 28.48 1209.76 29.216C1210.38 29.952 1211.23 30.32 1212.3 30.32ZM1232.44 35.12V32H1221.98V19.904H1224.38V30.104H1230.16V19.904H1232.54V30.104H1234.48V35.12H1232.44ZM1237.11 32V19.904H1239.53V32H1237.11ZM1236.91 17.384V14.864H1239.72V17.384H1236.91ZM1243.44 32V19.904H1245.86V32H1243.44ZM1245.62 17.504V15.128H1248V17.504H1245.62ZM1241.28 17.504V15.128H1243.66V17.504H1241.28Z" fill="#373F41"/>
</svg>
